<?xml version="1.0" standalone="no"?>
<!DOCTYPE svg PUBLIC "-//W3C//DTD SVG 20010904//EN"
 "http://www.w3.org/TR/2001/REC-SVG-20010904/DTD/svg10.dtd">
<svg version="1.0" xmlns="http://www.w3.org/2000/svg"
 width="1920.000000pt" height="1920.000000pt" viewBox="0 0 1920.000000 1920.000000"
 preserveAspectRatio="xMidYMid meet">
<metadata>
Created by potrace 1.14, written by Peter Selinger 2001-2017
</metadata>
<g transform="translate(0.000000,1920.000000) scale(0.100000,-0.100000)"
fill="#000000" stroke="none">
<path d="M3600 16030 l0 -540 -540 0 -540 0 0 -540 0 -540 -540 0 -540 0 0
-2130 0 -2130 540 0 540 0 0 -540 0 -540 540 0 540 0 0 -540 0 -540 540 0 540
0 0 -540 0 -540 540 0 540 0 0 -540 0 -540 540 0 540 0 0 -540 0 -540 540 0
540 0 0 -540 0 -540 540 0 540 0 0 -535 0 -535 540 0 540 0 0 535 0 535 538 2
537 3 3 537 2 538 538 2 537 3 0 537 0 538 538 0 537 0 0 540 0 540 540 0 540
0 0 540 0 540 540 0 540 0 0 540 0 540 540 0 540 0 0 540 0 540 540 0 540 0 0
2130 0 2130 -540 0 -540 0 0 540 0 540 -540 0 -540 0 0 540 0 540 -2125 0
-2125 0 -2 -537 -3 -538 -537 -3 -538 -2 -2 -538 -3 -537 -537 -3 -538 -2 0
540 0 540 -540 0 -540 0 0 540 0 540 -2190 0 -2190 0 0 -540z m3360 -2150 l0
-540 -540 0 -540 0 0 -540 0 -540 -540 0 -540 0 0 -540 0 -540 -540 0 -540 0
0 1080 0 1080 540 0 540 0 0 540 0 540 1080 0 1080 0 0 -540z"/>
</g>
</svg>
